<svg width="430" height="127" viewBox="0 0 390 107" fill="none" xmlns="http://www.w3.org/2000/svg">
<g clip-path="url(#clip0_103_61)">
<path d="M0 96.2L9.38486 94.4113C18.7697 92.4875 37.4847 89.1125 56.3639 83.6113C75.0515 78.3125 93.8486 70.8875 112.454 62.0112C131.333 53 150.212 42.2 168.818 40.4113C187.615 38.4875 206.303 45.9125 225.182 49.3888C243.897 53 262.667 53 281.546 43.9888C300.179 35.1125 319.031 16.8875 337.636 26C356.488 35.1125 375.121 70.8875 384.697 89.0113L394 107V-1H384.615C375.23 -1 356.515 -1 337.636 -1C318.948 -1 300.151 -1 281.546 -1C262.667 -1 243.787 -1 225.182 -1C206.385 -1 187.697 -1 168.818 -1C150.103 -1 131.333 -1 112.454 -1C93.8212 -1 74.9694 -1 56.3639 -1C37.5121 -1 18.8792 -1 9.30278 -1H0V96.2Z" fill="#B9E1D3"/>
</g>
<defs>
<clipPath id="clip0_103_61">
<rect width="394" height="108" fill="white" transform="translate(0 -1)"/>
</clipPath>
</defs>
</svg>
