<svg width="20" height="20" viewBox="0 0 20 20" fill="none" xmlns="http://www.w3.org/2000/svg">
<g clip-path="url(#clip0_100_48)">
<path d="M10 12.6666C11.4728 12.6666 12.6667 11.4727 12.6667 9.99992C12.6667 8.52716 11.4728 7.33325 10 7.33325C8.52728 7.33325 7.33337 8.52716 7.33337 9.99992C7.33337 11.4727 8.52728 12.6666 10 12.6666Z" fill="black"/>
<path d="M7.49996 1.66675L5.97496 3.33341H3.33329C2.41246 3.33341 1.66663 4.07925 1.66663 5.00008V15.0001C1.66663 15.9209 2.41246 16.6667 3.33329 16.6667H16.6666C17.5875 16.6667 18.3333 15.9209 18.3333 15.0001V5.00008C18.3333 4.07925 17.5875 3.33341 16.6666 3.33341H14.025L12.5 1.66675H7.49996ZM9.99996 14.1667C7.69996 14.1667 5.83329 12.3001 5.83329 10.0001C5.83329 7.70008 7.69996 5.83341 9.99996 5.83341C12.3 5.83341 14.1666 7.70008 14.1666 10.0001C14.1666 12.3001 12.3 14.1667 9.99996 14.1667Z" fill="black"/>
</g>
<defs>
<clipPath id="clip0_100_48">
<rect width="20" height="20" fill="white"/>
</clipPath>
</defs>
</svg>
