<svg width="29" height="29" viewBox="0 0 29 29" fill="none" xmlns="http://www.w3.org/2000/svg">
<path d="M14.5 0C6.50432 0 0 6.50432 0 14.5C0 22.4957 6.50432 29 14.5 29C22.4957 29 29 22.4957 29 14.5C29 6.50432 22.4957 0 14.5 0ZM19.0553 18.9293C18.6174 19.5676 18.0436 20.0465 17.2915 20.404C16.7367 20.6499 16.1591 20.8009 15.5626 20.8571V22.8061C15.5626 23.1036 15.322 23.3434 15.0252 23.3434H13.417C13.1194 23.3434 12.8796 23.1029 12.8796 22.8061V20.6886C12.5768 20.6142 12.2785 20.5102 11.9795 20.3736C11.1757 20.0457 10.5276 19.5114 10.073 18.7927C9.61683 18.1256 9.37168 17.3461 9.33374 16.4255C9.32159 16.134 9.54397 15.8866 9.83465 15.8669L11.279 15.7682C11.5696 15.7515 11.8155 15.9572 11.8497 16.2411C11.9074 16.7245 12.0432 17.1245 12.2436 17.3977C12.469 17.7362 12.7582 17.9586 13.1953 18.1377C14.1213 18.5453 15.2992 18.546 16.1143 18.2326C16.4756 18.0778 16.7314 17.9002 16.9006 17.6816C17.0456 17.4736 17.1169 17.255 17.1169 16.994C17.1169 16.7488 17.0539 16.5682 16.9014 16.3724C16.8217 16.2661 16.616 16.0673 16.0749 15.851C15.8107 15.7637 15.1246 15.5686 14.0803 15.3159C12.8606 15.0115 12.1548 14.7808 11.7169 14.5433C11.0649 14.1987 10.5754 13.7691 10.268 13.269C9.95305 12.7597 9.79367 12.1783 9.79367 11.5423C9.79367 10.8501 9.9872 10.1906 10.3682 9.58192C10.7629 8.98841 11.345 8.5224 12.0599 8.22185C12.299 8.11332 12.5707 8.02225 12.8804 7.94938V6.15747C12.8804 5.85996 13.121 5.62012 13.4177 5.62012H15.026C15.3235 5.62012 15.5633 5.86072 15.5633 6.15747V7.85451C16.0468 7.93496 16.4946 8.05716 16.9006 8.21882C17.6861 8.57174 18.2561 9.04457 18.6629 9.67375C19.0705 10.2673 19.3004 10.9799 19.3407 11.7791C19.3551 12.0721 19.132 12.3225 18.839 12.3423L17.3605 12.4417C17.0752 12.4614 16.83 12.258 16.7913 11.978C16.7086 11.3716 16.5059 10.948 16.1712 10.6847C15.791 10.3606 15.2392 10.2096 14.4681 10.2096C13.713 10.2096 13.1065 10.3561 12.7597 10.6232C12.4781 10.8403 12.3461 11.1014 12.3461 11.4444C12.3461 11.7085 12.4288 11.9157 12.592 12.0615C12.6785 12.1298 13.1506 12.4371 14.6768 12.7582C15.9375 13.0557 16.8642 13.3266 17.3719 13.5452C18.181 13.9095 18.7593 14.3793 19.0986 14.944C19.4773 15.5109 19.6678 16.1454 19.6678 16.8619C19.6678 17.6072 19.4621 18.3024 19.0553 18.9293Z" fill="black"/>
</svg>
