<svg width="29" height="29" viewBox="0 0 29 29" fill="none" xmlns="http://www.w3.org/2000/svg">
<g clip-path="url(#clip0_66_25)">
<path d="M25.375 0H12.0833C11.1228 0.00286869 10.2024 0.385708 9.52324 1.06491C8.84404 1.74411 8.4612 2.66447 8.45833 3.625V10.875H19.3333C20.2947 10.875 21.2168 11.2569 21.8966 11.9367C22.5764 12.6166 22.9583 13.5386 22.9583 14.5C22.9583 15.4614 22.5764 16.3834 21.8966 17.0633C21.2168 17.7431 20.2947 18.125 19.3333 18.125H8.45833V25.375C8.4612 26.3355 8.84404 27.2559 9.52324 27.9351C10.2024 28.6143 11.1228 28.9971 12.0833 29H25.375C26.3355 28.9971 27.2559 28.6143 27.9351 27.9351C28.6143 27.2559 28.9971 26.3355 29 25.375V3.625C28.9971 2.66447 28.6143 1.74411 27.9351 1.06491C27.2559 0.385708 26.3355 0.00286869 25.375 0Z" fill="black"/>
<path d="M4.12042 15.7084H19.3333C19.6538 15.7084 19.9611 15.581 20.1878 15.3544C20.4144 15.1278 20.5417 14.8205 20.5417 14.5C20.5417 14.1796 20.4144 13.8722 20.1878 13.6456C19.9611 13.419 19.6538 13.2917 19.3333 13.2917H4.12042L5.69125 11.7329C5.91878 11.5054 6.04661 11.1968 6.04661 10.875C6.04661 10.5532 5.91878 10.2446 5.69125 10.0171C5.46372 9.78957 5.15511 9.66174 4.83333 9.66174C4.51155 9.66174 4.20295 9.78957 3.97542 10.0171L0.350417 13.6421C0.13216 13.8744 0.0106621 14.1812 0.0106621 14.5C0.0106621 14.8188 0.13216 15.1256 0.350417 15.3579L3.97542 18.9829C4.20679 19.2031 4.51395 19.3259 4.83333 19.3259C5.15271 19.3259 5.45987 19.2031 5.69125 18.9829C5.91763 18.7548 6.04467 18.4464 6.04467 18.125C6.04467 17.8036 5.91763 17.4952 5.69125 17.2671L4.12042 15.7084Z" fill="black"/>
</g>
<defs>
<clipPath id="clip0_66_25">
<rect width="29" height="29" fill="white"/>
</clipPath>
</defs>
</svg>
