<svg width="25" height="25" viewBox="0 0 25 25" fill="none" xmlns="http://www.w3.org/2000/svg">
<g clip-path="url(#clip0_65_18)">
<path d="M23.9766 0H1.02344C0.752322 0.00102891 0.492604 0.109185 0.300895 0.300895C0.109185 0.492604 0.00102891 0.752322 0 1.02344L0 4.77734H25V1.02344C24.999 0.752322 24.8908 0.492604 24.6991 0.300895C24.5074 0.109185 24.2477 0.00102891 23.9766 0ZM3.30859 3.90625C3.10154 3.90548 2.89937 3.84332 2.72765 3.72765C2.55592 3.61197 2.42235 3.44797 2.34383 3.25639C2.26531 3.0648 2.24537 2.85424 2.28652 2.65132C2.32767 2.44839 2.42807 2.26223 2.57502 2.11637C2.72198 1.97051 2.90888 1.8715 3.1121 1.83187C3.31533 1.79223 3.52574 1.81375 3.71673 1.8937C3.90773 1.97364 4.07072 2.10843 4.18511 2.28102C4.2995 2.4536 4.36015 2.65623 4.35938 2.86328C4.35938 3.00091 4.33215 3.13717 4.27924 3.26422C4.22634 3.39127 4.14882 3.5066 4.05114 3.60355C3.95346 3.7005 3.83756 3.77716 3.71012 3.82911C3.58268 3.88106 3.44621 3.90728 3.30859 3.90625ZM6.09766 3.90625C5.89044 3.90625 5.68788 3.84475 5.51564 3.72954C5.3434 3.61434 5.20922 3.45061 5.1301 3.25909C5.05098 3.06757 5.03048 2.85688 5.07119 2.6537C5.1119 2.45052 5.212 2.26399 5.3588 2.11774C5.5056 1.97149 5.6925 1.87209 5.89583 1.83214C6.09916 1.79219 6.30977 1.81348 6.50099 1.89331C6.69221 1.97315 6.85544 2.10794 6.97 2.28061C7.08456 2.45328 7.1453 2.65606 7.14453 2.86328C7.14453 3.00058 7.11743 3.13652 7.06477 3.26331C7.01211 3.39011 6.93494 3.50526 6.83767 3.60216C6.74041 3.69906 6.62497 3.7758 6.49798 3.82798C6.37099 3.88017 6.23495 3.90676 6.09766 3.90625ZM8.83203 3.90625C8.62498 3.90548 8.42281 3.84332 8.25108 3.72765C8.07936 3.61197 7.94579 3.44797 7.86727 3.25639C7.78875 3.0648 7.7688 2.85424 7.80995 2.65132C7.85111 2.44839 7.95151 2.26223 8.09846 2.11637C8.24541 1.97051 8.43232 1.8715 8.63554 1.83187C8.83876 1.79223 9.04918 1.81375 9.24017 1.8937C9.43116 1.97364 9.59416 2.10843 9.70855 2.28102C9.82294 2.4536 9.88358 2.65623 9.88281 2.86328C9.88178 3.13958 9.77157 3.40426 9.5762 3.59963C9.38083 3.79501 9.11614 3.90522 8.83984 3.90625H8.83203ZM21.9844 4.06641H12.2188C11.911 4.04888 11.6216 3.91428 11.41 3.69021C11.1983 3.46613 11.0804 3.16957 11.0804 2.86133C11.0804 2.55309 11.1983 2.25652 11.41 2.03245C11.6216 1.80838 11.911 1.67378 12.2188 1.65625H21.9844C22.2921 1.67378 22.5815 1.80838 22.7932 2.03245C23.0048 2.25652 23.1228 2.55309 23.1228 2.86133C23.1228 3.16957 23.0048 3.46613 22.7932 3.69021C22.5815 3.91428 22.2921 4.04888 21.9844 4.06641Z" fill="#010101"/>
<path d="M3.30859 2.39064C3.21914 2.39141 3.13192 2.41864 3.05792 2.4689C2.98392 2.51916 2.92645 2.59019 2.89276 2.67305C2.85906 2.75592 2.85064 2.8469 2.86856 2.93454C2.88649 3.02218 2.92995 3.10255 2.99347 3.16553C3.05699 3.22851 3.13774 3.27128 3.22553 3.28845C3.31332 3.30562 3.40422 3.29642 3.48679 3.26201C3.56936 3.22761 3.6399 3.16953 3.68952 3.0951C3.73914 3.02067 3.76562 2.93322 3.76563 2.84377C3.76563 2.78393 3.75378 2.72469 3.73076 2.66946C3.70775 2.61422 3.67402 2.5641 3.63153 2.52197C3.58904 2.47984 3.53862 2.44655 3.4832 2.42401C3.42777 2.40147 3.36843 2.39013 3.30859 2.39064ZM6.09766 2.39064C6.00787 2.38987 5.91989 2.41578 5.84486 2.4651C5.76983 2.51442 5.71114 2.58491 5.67625 2.66764C5.64135 2.75037 5.63182 2.84159 5.64886 2.92975C5.6659 3.0179 5.70875 3.09901 5.77196 3.16277C5.83517 3.22653 5.9159 3.27008 6.0039 3.28788C6.09191 3.30568 6.18321 3.29694 6.26624 3.26276C6.34927 3.22858 6.42027 3.17051 6.47023 3.09591C6.5202 3.02131 6.54687 2.93355 6.54688 2.84377C6.54688 2.72426 6.49968 2.6096 6.41554 2.52473C6.33141 2.43987 6.21715 2.39167 6.09766 2.39064ZM8.83984 2.39064C8.75039 2.39141 8.66317 2.41864 8.58917 2.4689C8.51517 2.51916 8.4577 2.59019 8.42401 2.67305C8.39031 2.75592 8.38189 2.8469 8.39981 2.93454C8.41774 3.02218 8.4612 3.10255 8.52472 3.16553C8.58824 3.22851 8.66899 3.27128 8.75678 3.28845C8.84457 3.30562 8.93547 3.29642 9.01804 3.26201C9.10061 3.22761 9.17115 3.16953 9.22077 3.0951C9.27039 3.02067 9.29687 2.93322 9.29688 2.84377C9.29688 2.78393 9.28503 2.72469 9.26201 2.66946C9.239 2.61422 9.20527 2.5641 9.16278 2.52197C9.12029 2.47984 9.06987 2.44655 9.01445 2.42401C8.95902 2.40147 8.89968 2.39013 8.83984 2.39064ZM21.9922 2.4297H12.2266C12.1242 2.43968 12.0292 2.48741 11.9601 2.56359C11.891 2.63977 11.8527 2.73895 11.8527 2.84181C11.8527 2.94468 11.891 3.04386 11.9601 3.12004C12.0292 3.19622 12.1242 3.24394 12.2266 3.25392H21.9922C22.0946 3.24394 22.1896 3.19622 22.2587 3.12004C22.3278 3.04386 22.3661 2.94468 22.3661 2.84181C22.3661 2.73895 22.3278 2.63977 22.2587 2.56359C22.1896 2.48741 22.0946 2.43968 21.9922 2.4297ZM0 23.9766C0.00102891 24.2477 0.109185 24.5074 0.300895 24.6991C0.492604 24.8908 0.752322 24.999 1.02344 25H23.9766C24.2477 24.999 24.5074 24.8908 24.6991 24.6991C24.8908 24.5074 24.999 24.2477 25 23.9766V5.57033H0V23.9766ZM15.582 18.0313C15.5916 18.2031 15.566 18.3751 15.5068 18.5368C15.4476 18.6984 15.3561 18.8462 15.2378 18.9713C15.1195 19.0963 14.977 19.1959 14.8189 19.264C14.6608 19.3321 14.4905 19.3672 14.3184 19.3672C14.1462 19.3672 13.9759 19.3321 13.8178 19.264C13.6597 19.1959 13.5172 19.0963 13.3989 18.9713C13.2806 18.8462 13.1891 18.6984 13.1299 18.5368C13.0707 18.3751 13.0451 18.2031 13.0547 18.0313C13.0553 17.8407 13.0979 17.6526 13.1797 17.4805L10.2891 14.6875C10.1104 14.8607 9.8846 14.9772 9.63995 15.0224C9.3953 15.0675 9.14275 15.0394 8.91406 14.9414L6.06641 17.8086C6.19052 18.0545 6.23104 18.3342 6.1818 18.6052C6.13256 18.8762 5.99625 19.1237 5.79357 19.3102C5.59089 19.4967 5.33289 19.612 5.05874 19.6386C4.78459 19.6652 4.50924 19.6017 4.27449 19.4576C4.03975 19.3135 3.85841 19.0967 3.75801 18.8403C3.65761 18.5838 3.64362 18.3015 3.71817 18.0364C3.79272 17.7712 3.95174 17.5376 4.17109 17.371C4.39044 17.2044 4.65815 17.1139 4.93359 17.1133C5.13075 17.1118 5.32525 17.1587 5.5 17.25L8.32031 14.4141C8.21736 14.2465 8.15489 14.0572 8.13784 13.8613C8.12079 13.6654 8.14964 13.4681 8.22211 13.2853C8.29457 13.1025 8.40865 12.939 8.55529 12.808C8.70193 12.6769 8.8771 12.5818 9.0669 12.5302C9.2567 12.4787 9.4559 12.4721 9.6487 12.5109C9.84151 12.5498 10.0226 12.633 10.1776 12.7541C10.3326 12.8751 10.4573 13.0306 10.5417 13.2082C10.6262 13.3859 10.6681 13.5807 10.6641 13.7774C10.6679 13.8333 10.6679 13.8894 10.6641 13.9453L13.7305 16.9141C13.9092 16.8171 14.1092 16.7661 14.3125 16.7656C14.5153 16.7662 14.715 16.8158 14.8945 16.9102L18.957 12.9492C18.7993 12.7151 18.7244 12.4349 18.7443 12.1533C18.7641 11.8717 18.8775 11.6048 19.0665 11.3951C19.2554 11.1853 19.5091 11.0448 19.7871 10.9958C20.0651 10.9468 20.3516 10.9922 20.6008 11.1247C20.8501 11.2572 21.0479 11.4692 21.1628 11.7271C21.2777 11.985 21.3031 12.2739 21.2349 12.5478C21.1668 12.8218 21.0089 13.0651 20.7866 13.239C20.5642 13.413 20.2901 13.5076 20.0078 13.5078C19.8668 13.5086 19.7266 13.4848 19.5938 13.4375L15.4492 17.4805C15.537 17.6508 15.5825 17.8397 15.582 18.0313Z" fill="#010101"/>
<path d="M19.9648 12.9141H20.0117C20.1449 12.9148 20.2754 12.876 20.3865 12.8024C20.4975 12.7289 20.5843 12.624 20.6356 12.5011C20.6869 12.3782 20.7006 12.2428 20.6748 12.1121C20.649 11.9814 20.5849 11.8613 20.4907 11.7671C20.3965 11.6729 20.2764 11.6088 20.1457 11.583C20.015 11.5572 19.8796 11.5709 19.7567 11.6222C19.6338 11.6735 19.5289 11.7603 19.4554 11.8713C19.3818 11.9824 19.343 12.1129 19.3437 12.2461C19.3422 12.3553 19.3691 12.463 19.4219 12.5586C19.4728 12.6559 19.5475 12.7388 19.639 12.7996C19.7305 12.8604 19.8358 12.897 19.9453 12.9062L19.9648 12.9141ZM14.3164 17.3633C14.1629 17.3628 14.0139 17.4152 13.8945 17.5117L13.8477 17.5625L13.7969 17.6094C13.7062 17.7284 13.6568 17.8738 13.6562 18.0234C13.6555 18.1566 13.6943 18.2871 13.7678 18.3982C13.8414 18.5092 13.9463 18.596 14.0692 18.6473C14.1921 18.6986 14.3275 18.7123 14.4582 18.6865C14.5889 18.6607 14.709 18.5966 14.8032 18.5024C14.8974 18.4082 14.9615 18.2881 14.9873 18.1574C15.0131 18.0267 14.9994 17.8913 14.9481 17.7684C14.8968 17.6455 14.81 17.5406 14.699 17.4671C14.5879 17.3935 14.4574 17.3547 14.3242 17.3555L14.3164 17.3633ZM4.93359 17.707C4.79989 17.7071 4.66924 17.747 4.55837 17.8218C4.4475 17.8965 4.36144 18.0026 4.31121 18.1265C4.26098 18.2504 4.24887 18.3865 4.27642 18.5173C4.30396 18.6482 4.36992 18.7678 4.46585 18.8609C4.56177 18.9541 4.68331 19.0165 4.8149 19.0402C4.94649 19.0638 5.08215 19.0477 5.20453 18.9938C5.32691 18.94 5.43043 18.8508 5.50185 18.7378C5.57328 18.6248 5.60935 18.493 5.60547 18.3594C5.60038 18.1846 5.52736 18.0187 5.40191 17.8969C5.27645 17.775 5.10845 17.7069 4.93359 17.707ZM9.41406 13.1094C9.23654 13.1094 9.06624 13.1796 8.94035 13.3048C8.81446 13.4299 8.74322 13.5998 8.74219 13.7773C8.7386 13.8111 8.7386 13.8451 8.74219 13.8789V13.9492L9.4375 14.4531H9.51953C9.6862 14.4274 9.83698 14.3396 9.9416 14.2074C10.0462 14.0751 10.097 13.9082 10.0836 13.7401C10.0703 13.572 9.99382 13.4151 9.86963 13.301C9.74544 13.187 9.5827 13.1241 9.41406 13.125V13.1094Z" fill="#010101"/>
</g>
<defs>
<clipPath id="clip0_65_18">
<rect width="25" height="25" fill="white"/>
</clipPath>
</defs>
</svg>
