<svg width="21" height="29" viewBox="0 0 21 29" fill="#000000" xmlns="http://www.w3.org/2000/svg">
<path d="M17.375 0H4.08333C3.1228 0.00286869 2.20244 0.385708 1.52324 1.06491C0.844041 1.74411 0.461201 2.66447 0.458332 3.625V10.875H11.3333C12.2947 10.875 13.2168 11.2569 13.8966 11.9367C14.5764 12.6166 14.9583 13.5386 14.9583 14.5C14.9583 15.4614 14.5764 16.3834 13.8966 17.0633C13.2168 17.7431 12.2947 18.125 11.3333 18.125H0.458332V25.375C0.461201 26.3355 0.844041 27.2559 1.52324 27.9351C2.20244 28.6143 3.1228 28.9971 4.08333 29H17.375C18.3355 28.9971 19.2559 28.6143 19.9351 27.9351C20.6143 27.2559 20.9971 26.3355 21 25.375V3.625C20.9971 2.66447 20.6143 1.74411 19.9351 1.06491C19.2559 0.385708 18.3355 0.00286869 17.375 0Z" fill="black"/>
</svg>
