<svg width="25" height="25" viewBox="0 0 20 20" fill="none" xmlns="http://www.w3.org/2000/svg">
<path d="M18.9251 16.9083L15.8334 13.8416C17.0335 12.3453 17.6147 10.446 17.4574 8.53434C17.3002 6.62267 16.4165 4.84391 14.988 3.56379C13.5596 2.28368 11.6949 1.59951 9.77752 1.65198C7.86012 1.70445 6.03568 2.48956 4.67937 3.84587C3.32305 5.20219 2.53794 7.02662 2.48548 8.94402C2.43301 10.8614 3.11717 12.7261 4.39729 14.1545C5.6774 15.583 7.45617 16.4667 9.36783 16.6239C11.2795 16.7812 13.1788 16.2 14.6751 14.9999L17.7418 18.0666C17.8192 18.1447 17.9114 18.2067 18.0129 18.249C18.1145 18.2913 18.2234 18.3131 18.3334 18.3131C18.4434 18.3131 18.5523 18.2913 18.6539 18.249C18.7554 18.2067 18.8476 18.1447 18.9251 18.0666C19.0753 17.9112 19.1592 17.7035 19.1592 17.4874C19.1592 17.2713 19.0753 17.0636 18.9251 16.9083ZM10.0001 14.9999C8.84636 14.9999 7.71854 14.6578 6.75926 14.0168C5.79997 13.3759 5.0523 12.4648 4.61079 11.3989C4.16927 10.333 4.05376 9.16012 4.27884 8.02856C4.50392 6.89701 5.05949 5.8576 5.87529 5.0418C6.6911 4.22599 7.7305 3.67042 8.86206 3.44534C9.99361 3.22026 11.1665 3.33578 12.2324 3.77729C13.2983 4.2188 14.2093 4.96647 14.8503 5.92576C15.4913 6.88505 15.8334 8.01286 15.8334 9.16659C15.8334 10.7137 15.2188 12.1974 14.1249 13.2914C13.0309 14.3853 11.5472 14.9999 10.0001 14.9999Z" fill="black"/>
</svg>
