<svg width="25" height="25" viewBox="0 0 25 25" fill="none" xmlns="http://www.w3.org/2000/svg">
<path d="M19.4444 0H2.77778C1.24306 0 0 1.24306 0 2.77778V22.2222C0 23.7569 1.24306 25 2.77778 25H22.2222C23.7569 25 25 23.7569 25 22.2222V5.55556L19.4444 0ZM12.5 22.2222C10.2014 22.2222 8.33333 20.3542 8.33333 18.0556C8.33333 15.7569 10.2014 13.8889 12.5 13.8889C14.7986 13.8889 16.6667 15.7569 16.6667 18.0556C16.6667 20.3542 14.7986 22.2222 12.5 22.2222ZM16.6667 8.33333H2.77778V2.77778H16.6667V8.33333Z" fill="white"/>
</svg>
