<svg width="45" height="45" viewBox="0 0 45 45" fill="none" xmlns="http://www.w3.org/2000/svg">
<path d="M39.375 43.5938H7.03125C5.47805 43.5938 4.21875 42.3345 4.21875 40.7812C4.21875 39.228 5.47805 37.9688 7.03125 37.9688H39.375V43.5938Z" fill="#F9EBB2"/>
<path d="M4.21875 2.8125V37.6432C4.96547 36.9731 5.94914 36.5625 7.03125 36.5625H8.4375V1.40625H5.625C4.84875 1.40625 4.21875 2.03625 4.21875 2.8125Z" fill="#45AAB8"/>
<path d="M39.375 1.40625H9.84375V36.5625H39.375H40.7812V35.1562V2.8125C40.7812 2.03625 40.1513 1.40625 39.375 1.40625Z" fill="#45AAB8"/>
<path d="M42.1875 36.5625V2.8125C42.1875 1.25789 40.9296 0 39.375 0H5.625C4.07039 0 2.8125 1.25789 2.8125 2.8125V40.7812C2.8125 43.1107 4.7018 45 7.03125 45H41.4844C41.8732 45 42.1875 44.6857 42.1875 44.2969C42.1875 43.908 41.8732 43.5938 41.4844 43.5938H40.7812V37.9688C41.5575 37.9688 42.1875 37.3387 42.1875 36.5625ZM4.21875 2.8125C4.21875 2.03625 4.84875 1.40625 5.625 1.40625H8.4375V36.5625H7.03125C5.94914 36.5625 4.96547 36.9731 4.21875 37.6432V2.8125ZM39.375 43.5938H7.03125C5.47805 43.5938 4.21875 42.3345 4.21875 40.7812C4.21875 39.228 5.47805 37.9688 7.03125 37.9688H39.375V43.5938ZM39.375 36.5625H9.84375V1.40625H39.375C40.1512 1.40625 40.7812 2.03625 40.7812 2.8125V35.1562V36.5625H39.375Z" fill="#394240"/>
<path d="M30.2344 18.2812H16.1719C15.783 18.2812 15.4688 18.5955 15.4688 18.9844C15.4688 19.3732 15.783 19.6875 16.1719 19.6875H30.2344C30.6232 19.6875 30.9375 19.3732 30.9375 18.9844C30.9375 18.5955 30.6232 18.2812 30.2344 18.2812Z" fill="#394240"/>
<path d="M34.4531 14.0625H16.1719C15.783 14.0625 15.4688 14.3768 15.4688 14.7656C15.4688 15.1545 15.783 15.4688 16.1719 15.4688H34.4531C34.842 15.4688 35.1562 15.1545 35.1562 14.7656C35.1562 14.3768 34.842 14.0625 34.4531 14.0625Z" fill="#394240"/>
<path d="M16.1719 11.25H24.6094C24.9982 11.25 25.3125 10.9357 25.3125 10.5469C25.3125 10.158 24.9982 9.84375 24.6094 9.84375H16.1719C15.783 9.84375 15.4688 10.158 15.4688 10.5469C15.4688 10.9357 15.783 11.25 16.1719 11.25Z" fill="#394240"/>
<path opacity="0.2" d="M4.21875 2.8125V37.6432C4.96547 36.9731 5.94914 36.5625 7.03125 36.5625H8.4375V1.40625H5.625C4.84875 1.40625 4.21875 2.03625 4.21875 2.8125Z" fill="#231F20"/>
</svg>
