<svg width="60" height="60" viewBox="0 0 60 60" fill="none" xmlns="http://www.w3.org/2000/svg">
<path d="M29.9972 49.5044L11.8302 42.7876V21.174L29.9972 27.905V49.5044Z" fill="#FFAD61"/>
<path d="M29.9973 49.5044L48.1642 42.7876V21.174L29.9973 27.905V49.5044Z" fill="#FFAD61"/>
<path d="M58.8047 17.2124L40.6011 10.4955L29.9973 14.4337L48.1642 21.174L58.8047 17.2124Z" fill="#FFAD61"/>
<path d="M1.19519 25.1082L19.3988 31.825L29.9972 27.905L11.8302 21.174L1.19519 25.1082Z" fill="#FFAD61"/>
<path d="M29.9973 27.905L40.5768 31.8671L58.7803 25.1503L48.1642 21.174L29.9973 27.905Z" fill="#FFAD61"/>
<path d="M19.4432 10.5123L1.23972 17.2293L11.8302 21.174L29.9972 14.4338L19.4432 10.5123Z" fill="#FFAD61"/>
<path d="M29.9972 14.4337L11.8302 21.174L29.9972 27.905L48.1642 21.174L29.9972 14.4337Z" fill="#FFE6B8"/>
<path d="M59.1996 24.031L51.5808 21.1774L59.2218 18.3325C59.6903 18.1582 60.0007 17.7105 60 17.2107C59.9993 16.7109 59.6876 16.2642 59.2186 16.0911L41.0148 9.37415C40.7468 9.27536 40.4525 9.27571 40.185 9.37497L29.9974 13.1586L19.8596 9.39185C19.5921 9.29224 19.2976 9.29212 19.0297 9.39091L0.825936 16.1078C0.356953 16.2809 0.0453516 16.7274 0.0445313 17.2273C0.043711 17.7271 0.35414 18.1748 0.822655 18.3493L8.39565 21.1702L0.780467 23.9872C0.311249 24.1608 -0.000234242 24.6084 1.32174e-07 25.1087C0.000234507 25.6089 0.311953 26.0562 0.781405 26.2294L10.6347 29.8652V42.7876C10.6347 43.2879 10.9462 43.7352 11.4154 43.9087L29.5825 50.6256C29.7169 50.6753 29.8573 50.6998 29.9969 50.6998C30.138 50.6998 30.2781 50.6741 30.4109 50.6251L30.4114 50.6257L48.5785 43.9089C49.0477 43.7355 49.3592 43.2881 49.3592 42.7879V29.9004L59.1938 26.2716C59.6623 26.0986 59.974 25.6526 59.9752 25.1533C59.9764 24.6538 59.6673 24.2061 59.1996 24.031ZM29.9972 26.6304L15.2682 21.1733L28.6852 16.1952V20.5577C28.6852 21.2178 29.2204 21.7529 29.8804 21.7529C30.5404 21.7529 31.0756 21.2178 31.0756 20.5577V16.1086L44.726 21.1732L29.9972 26.6304ZM40.6025 11.77L55.3657 17.2175L48.1636 19.8991L33.4318 14.4334L40.6025 11.77ZM19.4418 11.7869L26.5633 14.4329L11.8309 19.899L4.67812 17.2345L19.4418 11.7869ZM11.8298 22.4485L26.5544 27.904L19.3984 30.5508L4.64401 25.1068L11.8298 22.4485ZM13.0254 30.7473L18.985 32.9465C19.1185 32.9957 19.2587 33.0203 19.3988 33.0203C19.5392 33.0203 19.6797 32.9956 19.8134 32.9461L28.8019 29.6215V47.7884L13.0254 41.9553V30.7473ZM46.969 41.9551L31.1924 47.7881V29.6288L40.1576 32.9864C40.2927 33.037 40.4346 33.0624 40.5768 33.0624C40.7168 33.0624 40.8571 33.0378 40.9906 32.9886L46.9691 30.7825L46.969 41.9551ZM40.5798 30.5921L33.4211 27.9111L48.162 22.4496L55.3504 25.1419L40.5798 30.5921Z" fill="#4D3D36"/>
<path d="M29.8804 22.7091C29.2204 22.7091 28.6852 23.2442 28.6852 23.9043V24.1434C28.6852 24.8035 29.2204 25.3386 29.8804 25.3386C30.5404 25.3386 31.0756 24.8035 31.0756 24.1434V23.9043C31.0756 23.2442 30.5404 22.7091 29.8804 22.7091Z" fill="#4D3D36"/>
</svg>
