<svg width="45" height="45" viewBox="0 0 45 45" fill="none" xmlns="http://www.w3.org/2000/svg">
<path fill-rule="evenodd" clip-rule="evenodd" d="M22.5 5.15625C12.9213 5.15625 5.15625 12.9213 5.15625 22.5C5.15625 32.0786 12.9213 39.8438 22.5 39.8438C32.0786 39.8438 39.8438 32.0786 39.8438 22.5C39.8438 12.9213 32.0786 5.15625 22.5 5.15625ZM2.34375 22.5C2.34375 11.368 11.368 2.34375 22.5 2.34375C33.6321 2.34375 42.6562 11.368 42.6562 22.5C42.6562 33.6321 33.6321 42.6562 22.5 42.6562C11.368 42.6562 2.34375 33.6321 2.34375 22.5ZM22.5 9.84375C23.2766 9.84375 23.9062 10.4734 23.9062 11.25V11.8439C26.9632 12.3913 29.5312 14.688 29.5312 17.8125C29.5312 18.5891 28.9016 19.2188 28.125 19.2188C27.3484 19.2188 26.7188 18.5891 26.7188 17.8125C26.7188 16.2295 25.0809 14.5312 22.5 14.5312C19.9191 14.5312 18.2812 16.2295 18.2812 17.8125C18.2812 19.3956 19.9191 21.0938 22.5 21.0938C26.1322 21.0938 29.5312 23.5928 29.5312 27.1875C29.5312 30.312 26.9632 32.6087 23.9062 33.1562V33.75C23.9062 34.5266 23.2766 35.1562 22.5 35.1562C21.7234 35.1562 21.0938 34.5266 21.0938 33.75V33.1562C18.0367 32.6087 15.4688 30.312 15.4688 27.1875C15.4688 26.4109 16.0984 25.7812 16.875 25.7812C17.6516 25.7812 18.2812 26.4109 18.2812 27.1875C18.2812 28.7706 19.9191 30.4688 22.5 30.4688C25.0809 30.4688 26.7188 28.7706 26.7188 27.1875C26.7188 25.6044 25.0809 23.9062 22.5 23.9062C18.8678 23.9062 15.4688 21.4072 15.4688 17.8125C15.4688 14.688 18.0367 12.3913 21.0938 11.8439V11.25C21.0938 10.4734 21.7234 9.84375 22.5 9.84375Z" fill="#1C274C"/>
</svg>
