<svg width="39" height="34" viewBox="0 0 39 34" fill="none" xmlns="http://www.w3.org/2000/svg">
<path d="M30.42 4.5152H25.74C24.0168 4.5152 22.62 5.73298 22.62 7.2352V11.3152C22.62 12.8174 24.0168 14.0352 25.74 14.0352H30.42C32.1432 14.0352 33.54 12.8174 33.54 11.3152V7.2352C33.54 5.73298 32.1432 4.5152 30.42 4.5152Z" stroke="#44E7AC" stroke-width="3.6" stroke-linecap="round" stroke-linejoin="round"/>
<path d="M13.26 4.5152H8.57999C6.85686 4.5152 5.45999 5.73298 5.45999 7.2352V11.3152C5.45999 12.8174 6.85686 14.0352 8.57999 14.0352H13.26C14.9831 14.0352 16.38 12.8174 16.38 11.3152V7.2352C16.38 5.73298 14.9831 4.5152 13.26 4.5152Z" stroke="#44E7AC" stroke-width="3.6" stroke-linecap="round" stroke-linejoin="round"/>
<path d="M30.42 19.4752H25.74C24.0168 19.4752 22.62 20.693 22.62 22.1952V26.2752C22.62 27.7775 24.0168 28.9952 25.74 28.9952H30.42C32.1432 28.9952 33.54 27.7775 33.54 26.2752V22.1952C33.54 20.693 32.1432 19.4752 30.42 19.4752Z" stroke="#44E7AC" stroke-width="3.6" stroke-linecap="round" stroke-linejoin="round"/>
<path d="M13.26 19.4752H8.57999C6.85686 19.4752 5.45999 20.693 5.45999 22.1952V26.2752C5.45999 27.7775 6.85686 28.9952 8.57999 28.9952H13.26C14.9831 28.9952 16.38 27.7775 16.38 26.2752V22.1952C16.38 20.693 14.9831 19.4752 13.26 19.4752Z" stroke="#44E7AC" stroke-width="3.6" stroke-linecap="round" stroke-linejoin="round"/>
</svg>
