<svg width="60" height="60" viewBox="0 0 60 60" fill="none" xmlns="http://www.w3.org/2000/svg">
<path d="M7.92773 21.8555H52.0547V50.7422H7.92773V21.8555Z" fill="white"/>
<path d="M51.5918 21.3867H52.5293V22.3242H51.5918V21.3867ZM50.6719 22.3242H49.752V21.3867H50.6719V22.3242ZM48.832 22.3242H47.9121V21.3867H48.832V22.3242ZM46.998 22.3242H46.0781V21.3867H46.998V22.3242ZM45.1582 22.3242H44.2383V21.3867H45.1582V22.3242ZM43.3184 22.3242H42.3984V21.3867H43.3184V22.3242ZM41.4844 22.3242H40.5645V21.3867H41.4844V22.3242ZM39.6445 22.3242H38.7246V21.3867H39.6445V22.3242ZM37.8047 22.3242H36.8848V21.3867H37.8047V22.3242ZM35.9707 22.3242H35.0508V21.3867H35.9707V22.3242ZM34.1309 22.3242H33.2109V21.3867H34.1309V22.3242ZM32.291 22.3242H31.3711V21.3867H32.291V22.3242ZM30.4512 22.3242H29.5312V21.3867H30.4512V22.3242ZM28.6172 22.3242H27.6973V21.3867H28.6172V22.3242ZM26.7773 22.3242H25.8574V21.3867H26.7773V22.3242ZM24.9375 22.3242H24.0234V21.3867H24.9434V22.3242H24.9375ZM23.1035 22.3242H22.1836V21.3867H23.1035V22.3242ZM21.2637 22.3242H20.3438V21.3867H21.2637V22.3242ZM19.4238 22.3242H18.5039V21.3867H19.4238V22.3242ZM17.5898 22.3242H16.6699V21.3867H17.5898V22.3242ZM15.75 22.3242H14.8301V21.3867H15.75V22.3242ZM13.9102 22.3242H12.9902V21.3867H13.9102V22.3242ZM12.0762 22.3242H11.1562V21.3867H12.0762V22.3242ZM10.2363 22.3242H9.31641V21.3867H10.2363V22.3242ZM7.45898 21.3867H8.39648V22.3242H7.45898V21.3867ZM8.39648 49.3066H7.45898V48.3457H8.39648V49.3066ZM8.39648 47.3789H7.45898V46.418H8.39648V47.3789ZM8.39648 45.457H7.45898V44.4961H8.39648V45.457ZM8.39648 43.5293H7.45898V42.5684H8.39648V43.5293ZM8.39648 41.6016H7.45898V40.6406H8.39648V41.6016ZM8.39648 39.6738H7.45898V38.7129H8.39648V39.6738ZM8.39648 37.7461H7.45898V36.7852H8.39648V37.7461ZM8.39648 35.8184H7.45898V34.8574H8.39648V35.8184ZM8.39648 33.8906H7.45898V32.9297H8.39648V33.8906ZM8.39648 31.9629H7.45898V31.002H8.39648V31.9629ZM8.39648 30.0352H7.45898V29.0742H8.39648V30.0352ZM8.39648 28.1074H7.45898V27.1465H8.39648V28.1074ZM8.39648 26.1797H7.45898V25.2187H8.39648V26.1797ZM8.39648 24.252H7.45898V23.291H8.39648V24.252ZM7.45898 50.2734H8.39648V51.2109H7.45898V50.2734ZM50.6719 51.2109H49.752V50.2734H50.6719V51.2109ZM48.832 51.2109H47.9121V50.2734H48.832V51.2109ZM46.998 51.2109H46.0781V50.2734H46.998V51.2109ZM45.1582 51.2109H44.2383V50.2734H45.1582V51.2109ZM43.3184 51.2109H42.3984V50.2734H43.3184V51.2109ZM41.4844 51.2109H40.5645V50.2734H41.4844V51.2109ZM39.6445 51.2109H38.7246V50.2734H39.6445V51.2109ZM37.8047 51.2109H36.8848V50.2734H37.8047V51.2109ZM35.9707 51.2109H35.0508V50.2734H35.9707V51.2109ZM34.1309 51.2109H33.2109V50.2734H34.1309V51.2109ZM32.291 51.2109H31.3711V50.2734H32.291V51.2109ZM30.4512 51.2109H29.5312V50.2734H30.4512V51.2109ZM28.6172 51.2109H27.6973V50.2734H28.6172V51.2109ZM26.7773 51.2109H25.8574V50.2734H26.7773V51.2109ZM24.9375 51.2109H24.0234V50.2734H24.9434V51.2109H24.9375ZM23.1035 51.2109H22.1836V50.2734H23.1035V51.2109ZM21.2637 51.2109H20.3438V50.2734H21.2637V51.2109ZM19.4238 51.2109H18.5039V50.2734H19.4238V51.2109ZM17.5898 51.2109H16.6699V50.2734H17.5898V51.2109ZM15.75 51.2109H14.8301V50.2734H15.75V51.2109ZM13.9102 51.2109H12.9902V50.2734H13.9102V51.2109ZM12.0762 51.2109H11.1562V50.2734H12.0762V51.2109ZM10.2363 51.2109H9.31641V50.2734H10.2363V51.2109ZM51.5918 50.2734H52.5293V51.2109H51.5918V50.2734ZM52.5293 49.3066H51.5918V48.3457H52.5293V49.3066ZM52.5293 47.3789H51.5918V46.418H52.5293V47.3789ZM52.5293 45.457H51.5918V44.4961H52.5293V45.457ZM52.5293 43.5293H51.5918V42.5684H52.5293V43.5293ZM52.5293 41.6016H51.5918V40.6406H52.5293V41.6016ZM52.5293 39.6738H51.5918V38.7129H52.5293V39.6738ZM52.5293 37.7461H51.5918V36.7852H52.5293V37.7461ZM52.5293 35.8184H51.5918V34.8574H52.5293V35.8184ZM52.5293 33.8906H51.5918V32.9297H52.5293V33.8906ZM52.5293 31.9629H51.5918V31.002H52.5293V31.9629ZM52.5293 30.0352H51.5918V29.0742H52.5293V30.0352ZM52.5293 28.1074H51.5918V27.1465H52.5293V28.1074ZM52.5293 26.1797H51.5918V25.2187H52.5293V26.1797ZM52.5293 24.252H51.5918V23.291H52.5293V24.252Z" fill="#0A0408"/>
<path d="M11.291 25.8223H49.0957V52.4766H11.291V25.8223Z" fill="#EBB866"/>
<path d="M4.21289 50.6543H55.7812V55.5703H4.21289V50.6543Z" fill="white"/>
<path d="M56.2441 56.0391H3.74414V50.1855H56.25V56.0391H56.2441ZM4.68164 55.1016H55.3125V51.123H4.68164V55.1016Z" fill="#0A0408"/>
<path d="M18.4277 19.5762H23.373V38.3086H18.4277V19.5762Z" fill="#55B7A8"/>
<path d="M23.8418 38.7773H17.959V19.1074H23.8418V38.7773ZM18.8965 37.8398H22.9043V20.0449H18.8965V37.8398Z" fill="#0A0408"/>
<path d="M27.8496 8.53711H32.7949V38.3086H27.8496V8.53711Z" fill="#DC444A"/>
<path d="M33.2578 38.7773H27.3809V8.06836H33.2637V38.7773H33.2578ZM28.3184 37.8398H32.3262V9.00586H28.3184V37.8398Z" fill="#0A0408"/>
<path d="M37.2656 14.168H42.2109V38.3086H37.2656V14.168Z" fill="#68A4D9"/>
<path d="M42.6797 38.7773H36.7969V13.6992H42.6797V38.7773ZM37.7344 37.8398H41.7422V14.6367H37.7344V37.8398Z" fill="#0A0408"/>
<path d="M18.4277 18.0879H23.373V24.5801H18.4277V18.0879Z" fill="white"/>
<path d="M23.8418 25.0488H17.959V17.6191H23.8418V25.0488ZM18.8965 24.1113H22.9043V18.5566H18.8965V24.1113Z" fill="#0A0408"/>
<path d="M27.8496 6.09375H32.7949V12.5859H27.8496V6.09375Z" fill="white"/>
<path d="M33.2578 13.0547H27.3809V5.625H33.2637V13.0547H33.2578ZM28.3184 12.1172H32.3262V6.5625H28.3184V12.1172Z" fill="#0A0408"/>
<path d="M37.2656 13.084H42.2109V19.5762H37.2656V13.084Z" fill="white"/>
<path d="M42.6797 20.0449H36.7969V12.6152H42.6797V20.0449ZM37.7344 19.1074H41.7422V13.5527H37.7344V19.1074Z" fill="#0A0408"/>
<path d="M18.4277 43.4883H18.8965V44.4258H18.4277V43.4883ZM40.8281 44.4258H39.9141V43.4883H40.8281V44.4258ZM39 44.4258H38.0859V43.4883H39V44.4258ZM37.1719 44.4258H36.2578V43.4883H37.1719V44.4258ZM35.3438 44.4258H34.4297V43.4883H35.3438V44.4258ZM33.5156 44.4258H32.6016V43.4883H33.5156V44.4258ZM31.6875 44.4258H30.7734V43.4883H31.6875V44.4258ZM29.8652 44.4258H28.9512V43.4883H29.8652V44.4258ZM28.0371 44.4258H27.123V43.4883H28.0371V44.4258ZM26.209 44.4258H25.2949V43.4883H26.209V44.4258ZM24.3809 44.4258H23.4668V43.4883H24.3809V44.4258ZM22.5527 44.4258H21.6387V43.4883H22.5527V44.4258ZM20.7246 44.4258H19.8105V43.4883H20.7246V44.4258ZM41.7422 43.4883H42.2109V44.4258H41.7422V43.4883Z" fill="#0A0408"/>
<path d="M6.43945 20.3672H9.42188V23.3496H6.43945V20.3672Z" fill="#DC444A"/>
<path d="M9.89062 23.8184H5.9707V19.8984H9.89062V23.8184ZM6.9082 22.8809H8.95312V20.8359H6.9082V22.8809Z" fill="#0A0408"/>
<path d="M50.6074 20.3262H53.5898V23.3086H50.6074V20.3262Z" fill="#DC444A"/>
<path d="M54.0586 23.7715H50.1387V19.8516H54.0586V23.7715ZM51.0762 22.834H53.1211V20.7891H51.0762V22.834Z" fill="#0A0408"/>
</svg>
